<svg width="210mm" height="297mm" d="M 5.9482 1.7428 C 5.9482 5.2282 5.9482 5.2282 7.5637 7.1277 L 4.2054 8.7136 L 7.691 10.4564 L 4.2054 12.1991 L 7.691 13.9418 C 6.3782 15.843 6.3782 18.1063 7.02 20.7 L 7.02 20.7 C -1.98 16.2 -0.18 7.2 3.42 3.6 C 10.62 -3.6 18.72 1.8 20.4984 4.6863 C 24.1794 8.9226 24.12 16.2 16.92 20.7 L 16.92 20.7 C 15.4313 18.1063 14.6618 15.6846 16.4046 13.9418 L 19.89 12.1991 L 16.4046 10.4564 L 19.89 8.7136 L 17.0337 7.0772 C 18.1472 5.2282 16.4046 3.4854 16.4046 1.7428 L 14.6618 5.2282 C 14.6618 5.2282 12.3231 3.705 9.4336 5.2282 C 8.5048 3.4576 7.4138 2.6647 5.9482 1.7428 Z" version="1.1" viewBox="0 0 210 297" xml:space="preserve" xmlns="http://www.w3.org/2000/svg"><g><path d="m35.489 14.35c0 19.406-0.47939 23.48 8.995 29.983l-18.938 9.7889 19.408 9.7037-19.408 9.7032 19.408 9.7032c-7.3096 10.586-7.3096 23.188-3.7361 37.629-50.111-25.056-40.089-75.167-20.045-95.212 40.089-40.089 85.189-10.022 95.091 6.0485 20.496 23.588 20.165 64.107-19.924 89.163-8.289-14.442-12.574-27.925-2.8697-37.629l19.406-9.7032-19.406-9.7032 19.406-9.7037-15.904-9.1115c6.1999-10.295-3.5028-19.999-3.5028-29.702l-9.7038 19.406s-13.022-8.481-29.11 0c-5.1715-9.8586-11.006-15.232-19.167-20.365z" stroke-width="5.5679"/><path d="m61.412 57.621a1.411 1.4475 0 0 1-1.1596 1.6654 1.411 1.4475 0 0 1-1.6239-1.1889 1.411 1.4475 0 0 1 1.1582-1.6664 1.411 1.4475 0 0 1 1.6249 1.1875" stroke="#000" stroke-width="3.3188" style="paint-order:stroke markers fill"/><path d="m82.088 57.739a1.411 1.4475 0 0 1-1.1596 1.6654 1.411 1.4475 0 0 1-1.6239-1.1889 1.411 1.4475 0 0 1 1.1582-1.6664 1.411 1.4475 0 0 1 1.6249 1.1875" stroke="#000" stroke-width="3.3188" style="paint-order:stroke markers fill"/></g><path d="m79.435 66.216c0.10441 3.2561 0.11731 6.5221 0.08703 9.7849-0.03422 3.6871-0.02348 6.3208-0.43513 9.9208-0.11629 1.0169-0.34511 1.9945-0.52216 2.9898-0.17459 0.98149-0.44789 3.3997-1.0443 4.077-1.1048 1.2548-4.4549 0.59112-5.4827 0.4077-2.9626-0.52874-4.6618-1.0676-7.5713-2.5821-2.1494-1.1188-4.5451-2.8016-5.6567-6.1155-1.2747-3.8003-1.065-8.3913-0.26108-12.367 0.45161-2.2333 1.0279-4.3819 1.3924-6.6591 0.11415-0.71304 0.26108-1.4322 0.26108-2.1744" fill="none" stroke="#000" stroke-width="1.6882" style="paint-order:stroke markers fill"/><path d="m69.695 88.827c-0.06073 0.12147-0.13926 0.23558-0.18221 0.36442-0.2233 0.21725-0.02384 0.49342-0.0911 0.72884-0.03731 0.13058-0.13452 0.23725-0.18221 0.36442-0.08793 0.23448-0.0892 0.49632-0.18221 0.72884-0.01595 0.03988-0.08069 0.04944-0.0911 0.0911-0.05005 0.20019-0.0255 0.44092-0.0911 0.63773-0.05348 0.16043-0.18221 0.13651-0.18221 0.27331" fill="none" stroke="#000" stroke-width="4" style="paint-order:stroke markers fill"/></svg>
