<svg xmlns="http://www.w3.org/2000/svg" version="1.1" xmlns:xlink="http://www.w3.org/1999/xlink" width="22.44" height="20.68"><svg xmlns="http://www.w3.org/2000/svg" viewBox="0.470467 0.0169444 22.44 20.68">
	<path fill="#fe9234" d="M 5.9482 1.7428 C 5.9482 5.2282 5.9482 5.2282 7.5637 7.1277 L 4.2054 8.7136 L 7.691 10.4564 L 4.2054 12.1991 L 7.691 13.9418 C 6.3782 15.843 6.3782 18.1063 7.02 20.7 L 7.02 20.7 C -1.98 16.2 -0.18 7.2 3.42 3.6 C 10.62 -3.6 18.72 1.8 20.4984 4.6863 C 24.1794 8.9226 24.12 16.2 16.92 20.7 L 16.92 20.7 C 15.4313 18.1063 14.6618 15.6846 16.4046 13.9418 L 19.89 12.1991 L 16.4046 10.4564 L 19.89 8.7136 L 17.0337 7.0772 C 18.1472 5.2282 16.4046 3.4854 16.4046 1.7428 L 14.6618 5.2282 C 14.6618 5.2282 12.3231 3.705 9.4336 5.2282 C 8.5048 3.4576 7.4138 2.6647 5.9482 1.7428 Z"></path>
</svg><style>@media (prefers-color-scheme: light) { :root { filter: none; } }
@media (prefers-color-scheme: dark) { :root { filter: none; } }
</style></svg>